<?xml version="1.0" encoding="utf-8"?>
<!-- Generator: Adobe Illustrator 26.0.0, SVG Export Plug-In . SVG Version: 6.00 Build 0)  -->
<svg version="1.1" id="Camada_1" xmlns="http://www.w3.org/2000/svg" xmlns:xlink="http://www.w3.org/1999/xlink" x="0px" y="0px"
	 viewBox="0 0 219 220.2" style="enable-background:new 0 0 219 220.2;" xml:space="preserve">
<style type="text/css">
	.st0{fill-rule:evenodd;clip-rule:evenodd;fill:#020202;}
	.st1{fill-rule:evenodd;clip-rule:evenodd;fill:#E20612;}
	.st2{fill-rule:evenodd;clip-rule:evenodd;fill:#010101;}
</style>
<path class="st0" d="M147.8,57.3c0.5,0.5,1,0.9,1.6,1.2c0.7-1.1,1.4-2.2,2.3-3.2c0.8-1.1,1.5-2.2,2.4-3.3c-0.5,3.1-0.8,6.3-1,9.5
	c0.5,0.5,1,0.9,1.6,1.2c0.7-1.7,6.1-7.7,6.4-8.5c-0.3-0.2-1.2-0.9-1.5-1.1c-0.8,0.9-1.5,1.9-2.2,2.9l-1.7,2.3c-0.2,0.3,0,0-0.2,0.3
	l-0.1,0.1c0,0-0.1,0.1-0.1,0.1l0.8-8.5c-0.5-0.5-1.1-1-1.8-1.4l-4.8,6.2C148.9,55.8,148.3,56.5,147.8,57.3L147.8,57.3z"/>
<path class="st0" d="M67.9,175.5c0.7-2,3.2-4.7,3.8-6.6c0.1,0.9-0.2,3.2-0.2,4.4c0,1.5-0.1,3.1-0.1,4.6c0.6,0.5,1.2,0.9,1.9,1.2
	c0.1-0.1,0.2-0.2,0.3-0.3l1.2-1.9c0.5-0.8,0.9-1.4,1.4-2.2c0.8-1.3,2.3-3.1,3-4.4l-1.6-1c-1.3,1.6-3.5,5.9-4.2,6.7
	c0.1-3.1,0-6.4,0.1-9.5c-0.6-0.4-1.1-0.7-1.7-1c-0.8,1.5-1.9,3.2-2.8,4.6c-1.1,1.4-2,2.9-2.9,4.4L67.9,175.5L67.9,175.5z"/>
<path class="st0" d="M75.2,44.8c1-0.5,3.1-1.8,3.7,0s-1,2.6-2.3,3C76.7,47.8,75.2,44.8,75.2,44.8z M72.7,44.5c0.9,2.2,4,7.1,4.6,9.4
	l2.1-1l-1.9-3.6c0.1,0,0.1-0.1,0.1-0.1s0.1-0.1,0.1-0.1c2-1.5,3.2,0.1,5.1,2l2.1-1c-0.7-1-3.2-3.2-5-3.3c0.8-0.9,1-2.1,0.8-3.2
	C79.4,39.6,72.9,44.3,72.7,44.5L72.7,44.5z"/>
<path class="st0" d="M52.1,63.7c0.5-1,1.8-2.9,3.3-1.7c1.5,1.2-0.3,3.1-0.8,3.7C53.9,65.3,52.9,64.3,52.1,63.7z M49.5,64.2
	c2,1.9,6.3,5.1,7.8,7c0.8-0.4,1.4-1,1.7-1.8c-1.1-0.8-2.2-1.6-3.1-2.6c0.2-0.4,0-0.1,0.4-0.6c0.2-0.2,0.4-0.4,0.6-0.6
	c0.4-0.3,1-0.4,1.6-0.3c1.1,0.2,2.1,0.9,3.2,1.1c0.6-0.5,1.1-1.1,1.5-1.8c-1.9-0.6-3.8-1.7-5.9-1c0.7-3.9-2-4.6-3.6-3.7
	C52.6,60.5,50.4,63.2,49.5,64.2L49.5,64.2z"/>
<path class="st0" d="M168.3,161.2c-0.6-0.6-1.3-1.1-2-1.6c-2.1-1.6-5.6-3.7-3.7-5.9c2.3-2.9,6.9,3.1,8.6,3.9c0.5-0.5,1-1.1,1.3-1.7
	c-0.8-0.7-1.6-1.4-2.5-2c-0.9-0.7-1.7-1.3-2.6-1.9c-2.4-1.6-4.5-1.5-6.1,0.7c-3.2,4.5,1.4,6.9,5.7,10.2
	C167.6,162.4,168.1,161.8,168.3,161.2L168.3,161.2z"/>
<path class="st0" d="M165.7,148.1l4.4,2.3l1-1.9l-3.3-1.7c1-4.7,8.3-2.7,7.4,1.4c-0.3,1.5-1.4,2-1.8,3.1c0.9,0.4,0.7,0.7,1.8,0.9
	c0.1-0.8,2.1-2.5,1.9-5.3c-0.2-1.9-1.3-3.7-3.1-4.6C169.6,140,166,144.2,165.7,148.1L165.7,148.1z"/>
<path class="st0" d="M131.7,49.1l6.5,2.5l0.7-1.7l-4.5-1.5c0.2-1,0.6-2,1.1-2.9l3.2,1.2l0.7-1.6L136,44l0.8-2.5l4.2,1.7l0.6-1.7
	l-6.1-2.3c-0.7,1.6-1.4,3.3-1.9,5C133,45.6,132,47.7,131.7,49.1L131.7,49.1z"/>
<path class="st0" d="M153.1,163.9c1.1-1,2.2-2.1,3.2-3.3c0.8,0.6,1.6,1.3,2.2,2.1c-0.8,0.9-1.6,1.7-2.6,2.4c0.2,0.5,0.6,0.9,1.1,1.2
	c0.7-0.6,1.9-1.9,2.7-2.4c0.6,0.5,1.2,1.1,1.7,1.7c-0.4,0.7-2.7,2.4-3.1,3c0.3,0.5,0.7,0.9,1.2,1.3l4.7-4.6l-1.8-1.9
	c-0.4-0.4-0.6-0.6-0.9-1c-2.1-2-3.2-3.5-4.6-4.7c-0.8,0.3-0.7,0.6-1.3,1.2c-0.4,0.4-0.8,0.7-1.2,1.1c-0.8,0.8-1.6,1.6-2.5,2.2
	c0.1,0.3,0.3,0.6,0.5,0.9C152.9,163.8,152.6,163.6,153.1,163.9L153.1,163.9z"/>
<path class="st0" d="M43.9,72.7c1.4,1,2.9,2,4.4,2.8c0.8,0.5,1.4,1,2.2,1.4s1.5,1.1,2.2,1.5c0.4-0.4,0.7-0.8,1-1.3l2.8-4.4l-1.5-0.8
	l-2.2,3.7c-1-0.4-1.9-0.9-2.7-1.6c0.5-1,1.6-2,1.9-3.1c-0.7-0.2-0.7-0.5-1.4-0.7c-0.6,0.6-1.4,2.2-1.9,3c-0.7-0.3-1.4-0.9-2.2-1.3
	c0.5-1.3,1.8-2.5,2.4-3.8l-1.3-0.9C46.8,67.7,44.1,72.1,43.9,72.7L43.9,72.7z"/>
<path class="st0" d="M41.4,81.3c0.3-1.4,1.2-3.4,3-2.6c1.4,0.6,1,2.9,0.1,3.9L41.4,81.3z M39.1,82.3c0.1,0.1,9.1,4.4,9.7,4.6
	l0.9-2.1L46,83.3c0.3-1.5,1.3-2.4,0.8-4.5c-0.3-1.4-1.6-2.4-3-2.5C41.1,76.2,40.2,80.2,39.1,82.3L39.1,82.3z"/>
<path class="st0" d="M59,168.9c0.9,1,1.9,1.7,3.1,2.2c1.5,0.4,3.1-0.5,3.5-2c0.1-0.4,0.1-0.8,0.1-1.2c-0.2-1.5-2.4-4.4-0.9-5.2
	c1.3-0.7,3.4,2.1,3.8,2.9c0.6-0.3,1.1-0.6,1.6-0.9c-0.6-1.4-4.4-5.4-6.9-3.5c-3.6,2.8,0.9,5.5-0.1,8c-1.8,0.4-2.8-1.4-3.7-2.4
	c-0.3,0.1-0.5,0.3-0.7,0.5c-0.2,0.2-0.4,0.3-0.6,0.5L59,168.9L59,168.9z"/>
<path class="st0" d="M146.4,56.1c0.3-0.6,0.6-0.9,0.9-1.6c-1.2-0.2-2.3-0.8-3.2-1.7c-1.8-2.2,0.1-5.9,2.5-6.2c1.6-0.2,2.5,1,3.4,1.5
	l0.6-0.6c0.2-0.2,0.4-0.5,0.5-0.8c-2.1-2.4-5.7-2.6-8.1-0.5c-0.5,0.4-0.9,1-1.2,1.6C139.4,52,142.9,55.5,146.4,56.1L146.4,56.1z"/>
<path class="st0" d="M55.3,162.9c0.9-1.2,5-4.6,6.4-6.1c-0.3-0.7-0.9-1.2-1.5-1.6c-0.7,0.4-1.2,1-1.7,1.6c-0.5,0.6-1,1.1-1.5,1.5
	c-1.2,1-2.6,2.6-3.5,2.9c-0.5-0.8-1.1-1.5-1.8-2.2c-0.5,0.3-0.9,0.7-1.2,1.1l5.7,6.1l1.3-1C56.9,164.2,55.9,163.8,55.3,162.9
	L55.3,162.9z"/>
<path class="st0" d="M44.7,148.5l-1.3-2.6l-1.5,0.7l4,7.4l1.5-0.7l-1.5-2.6c0.6-0.8,7.3-4.2,7.8-4.3l-1-2.1
	C50.8,145,46.1,148,44.7,148.5L44.7,148.5z"/>
<path class="st0" d="M145.9,169.1c0.7-0.4,1.3-0.9,1.9-1.4c0.6-0.5,1.2-0.9,1.8-1.3c0.9,1.2,1.7,2.4,2.6,3.7
	c0.8,1.2,1.7,2.4,2.6,3.6c0.6-0.4,1.2-0.8,1.7-1.2c-1-1.5-2-2.9-3.1-4.3c-1.1-1.4-2.1-2.8-2.9-4.3l-5.6,4.1L145.9,169.1L145.9,169.1
	z"/>
<path class="st0" d="M156.2,64.5c0.6,0.6,0.9,1.2,1.7,1.6c2.4-2.9,5.1-5,7.4-7.4l-1.4-1.6c-1.4,1.1-2.7,2.3-3.9,3.7
	C159,62.1,157.2,63.1,156.2,64.5z"/>
<path class="st0" d="M48.7,157.7c1.5-0.9,3-1.9,4.4-3l4.4-3c-0.4-0.6-0.7-1.3-1.2-1.8c-1,0.4-6.9,5.2-8.8,6L48.7,157.7L48.7,157.7z"
	/>
<path class="st0" d="M138.3,39.3c0.9,0.3,1,0.6,2.1,0.1c0.7-0.2,1.3-0.5,1.9-0.9c-1.8-1.4-2.5-0.5-3.1-0.1c-0.1,0.1-0.3,0.2-0.4,0.3
	C138.4,39.1,138.6,38.8,138.3,39.3z"/>
<path class="st1" d="M74.2,84l-1.3,0.5l4.3,43.1c2.9-0.8,6.5-4,16.8-5.3c5.2-0.6,10.4-0.4,15.5,0.6c1.6,0.3,3.2-0.8,4.8-0.4
	c0,0,0.1-0.1,0.1-0.1l1.7-0.3c4.7-0.4,9.5-0.1,14.2,0.8c2.3,0.5,4.5,1.1,6.6,1.9l6,2.6c0.3-4.5,4.4-42.2,4.1-43.1
	c-3.4-1-8.8-1.1-12.5-0.9c-6.7,0.8-11.6,2.4-16.7,6.5c-1.5,1.2-2.8,2.5-4,3.9c10.2-4.7,17.4-7.4,29.7-6.1c0.5,1.8-3,28.8-3.2,34.6
	c-0.7,0-5.7-1.6-7.1-1.9c-5.3-1.3-10.9-1.4-16.3-0.2c-1.2,0.3-2.4,0.6-3.5,1c-4.8,1.8-1.9,1.7-6.5,0c-8-2.8-15.4-2.2-23.4,0
	c-1.1,0.3-2.5,0.9-3.5,1.1c-0.5-5.8-1.1-11.6-1.7-17.3c-0.2-2.5-1.8-16.2-1.6-17c0,0,0-0.1,0-0.1c0.2-0.8,7.6-0.5,8.7-0.5
	c2.7,0.2,5.3,0.6,7.9,1.2c7.3,1.7,9.2,3.7,13.2,5.1c-2.2-2.1-2.3-2.7-5.6-5C88.5,80.3,76.2,84.3,74.2,84L74.2,84z"/>
<path class="st1" d="M67.1,86.8c-0.4,1.7,4.7,43.8,5.7,53.7c0,0.3,0,0.6,0.1,0.9l0.3,0.9c0.8-1.8,4.1-5.4,5.5-6.7
	c4.4-4.2,9.7-7.3,15.5-9c3.7-1.1,6.6-1.3,10.6-1.8c-11.5-2.4-17.8-0.3-26.1,6.6c-0.6,0.5-2.1,2.2-2.6,2.3l-5.4-46.4l-0.3-2
	C69,85.3,68.1,86.1,67.1,86.8L67.1,86.8L67.1,86.8z"/>
<path class="st1" d="M115.7,124.5l-0.6,0.3c10.7,0.7,19,4,26.1,10.8l4.3,4.8c0.4,0.5,0.7,1.5,1.4,1.7l5.8-53.3
	c0.1-1.5,0.3-1.8-0.8-2.6c-0.7-0.6-1.6-0.9-2.5-0.8c-0.7,5.3-5.3,47.3-5.8,48.4c-1.4-0.8-4.1-5-11.3-8
	C125.9,123,121.8,123.8,115.7,124.5z"/>
<path class="st1" d="M114.4,184c0.6-2.5-0.9-5-3.4-5.6c-2.4-0.6-4.8,0.8-5.5,3.2C103.9,187.5,112.8,189.8,114.4,184z"/>
<path class="st2" d="M110.5,206.2v-8.9c2.3-0.4,5.7-0.3,8.2-0.5c2.1-0.2,6-1.1,7.6-1c0.3,1.9,1.7,7.3,1.6,8.7
	C124.9,205.4,113.8,206.5,110.5,206.2z M93.6,195.7c2.5,0.3,4.9,0.8,7.6,1.1s5.5,0.4,8.3,0.4v9c-6.5,0-11.5-0.9-17.6-1.7L93.6,195.7
	L93.6,195.7z M127.3,195.6l15.3-4.6l3.3,8.2c-3,1.6-13,4.6-16.9,5.1L127.3,195.6z M90.9,204.2c-2.8-0.2-14.8-3.8-16.8-5.1l3.3-8.2
	c1.2,0.3,2.5,0.8,3.7,1.3c3.8,1.4,7.6,2.5,11.6,3.2L90.9,204.2L90.9,204.2z M146.9,198.7l-3.5-8.3c2.4-0.7,8.2-3.9,10.7-5.4
	c1.2-0.7,2.2-1.5,3.3-2l5,7.3C160.6,192.2,150,197.7,146.9,198.7L146.9,198.7z M57.7,190.4l4.8-7.4c0,0,7.6,4.5,10.4,5.8
	c1.2,0.5,2.5,1.1,3.6,1.7c-0.5,1.2-3,7.6-3.5,8.2c-2.8-1.1-5.3-2.4-7.9-3.8C63.7,194.2,58.3,191.1,57.7,190.4L57.7,190.4z
	 M163.2,189.8l-4.9-7.3c0.5-0.4,1-0.8,1.6-1.1c0.6-0.4,1.1-0.8,1.6-1.2c2.5-1.8,5.3-4.2,7.6-6.3c0.5-0.5,0.9-1,1.4-1.4
	c2.3,2,4.4,4.1,6.4,6.3c-2,2.1-4.1,4-6.4,5.8C169.3,185.5,164.4,189.4,163.2,189.8L163.2,189.8z M49.4,172.4c1,0.8,1.9,1.7,2.8,2.6
	l6,5c1.2,0.9,2.3,1.5,3.3,2.4l-4.9,7.4c-1.5-0.7-8.8-6.4-10.3-8c-1-1.1-2.1-2.1-3.3-3C43.4,178.2,48.6,173,49.4,172.4L49.4,172.4z
	 M177.6,177.9c-2.2-2-4.4-4.1-6.4-6.3c0.6-0.8,0.6-0.7,1.3-1.3l2.6-2.9c1.7-2,3.4-4.1,4.9-6.3c0.4-0.6,0.8-1.1,1.2-1.6
	c2.6,1.5,5,3.1,7.4,4.9c-1.1,2.3-7.3,9.5-9.4,11.9C178.7,176.9,178.2,177.2,177.6,177.9L177.6,177.9z M31.2,164.4l7.3-5
	c0.8,0.8,4.9,6.8,7.3,9.3c1,1.1,1.9,1.9,2.7,2.9c-0.4,0.6-5.7,6-6.5,6.3c-0.9-1.1-1.8-2.2-2.9-3.2c-0.5-0.5-0.8-0.9-1.4-1.6
	c-0.4-0.5-0.9-1.1-1.4-1.7c-1-1.2-1.8-2.2-2.7-3.4C32.9,166.9,32,165.7,31.2,164.4L31.2,164.4z M189.2,163.4l-7.3-4.9
	c0.8-1.9,6.1-9.3,7.3-14c1.5,0.4,2.9,1,4.3,1.7c1.1,0.5,3.3,1.1,4.1,1.8C197.1,149.6,191.1,162,189.2,163.4L189.2,163.4z
	 M22.3,148.1c0.5-0.6,6.9-3,8.2-3.5l3.5,7.1c0.6,1.1,1.3,2.3,1.9,3.4c0.8,1.1,1.4,2.2,2.1,3.4l-7.3,5c-0.9-0.9-3.7-5.9-4.5-7.3
	C24.8,153.6,23.5,150.8,22.3,148.1L22.3,148.1z M198,147l-8.2-3.3l2.5-7.3c0.8-2.6,1.5-5.2,2-7.9l8.7,1.7v1.1
	C202.3,134.7,199.3,145.1,198,147z M16.9,130.1l8.6-1.7c0.4,0.7,1.7,6.5,2.1,7.9l2.5,7.4l-8.3,3.4c-0.3-1.3-1-2.8-1.5-4.1
	C19.5,140.6,16.8,132,16.9,130.1z M203.3,129.1l-8.6-1.6c-0.1-0.8,0.8-6.1,1-7.5c0.3-2.8,0.4-5.5,0.4-8.3h9
	C205,115.2,204.5,126.5,203.3,129.1L203.3,129.1z M14.9,111.6h9c0,2.7,0.2,5.4,0.4,8.1c0.2,2.2,1,5.7,1,7.7l-8.8,1.8
	C15.6,121.3,14.9,120.7,14.9,111.6L14.9,111.6z M194.1,114.1c-0.7,13-3.4,23.5-8.3,33.7c-3.9,8-6.6,11.4-11.4,17.5
	c-7.8,9.9-20.6,18.6-31.8,23.5c-42.9,18-92.2-2.3-110.2-45.2c-4.7-11.3-6.9-23.5-6.5-35.8c1.6-45.2,39.9-82.6,87.3-80.8
	c11.7,0.4,23.1,3.3,33.6,8.4c8.2,4,12.5,7.4,18.9,12.6c0.5,0.4,0.9,0.9,1.4,1.3c3.2,2.9,6.2,6.1,8.9,9.5
	C187.9,74,195.1,94,194.1,114.1z M194.6,94.7l8.7-1.7c1,2.3,2,14.8,1.7,17.6h-8.9c-0.2-2.7-0.2-5.5-0.5-8.2
	C195.4,100.1,194.6,96.6,194.6,94.7L194.6,94.7z M23.8,110.6h-8.9c-0.1-5.9,0.5-11.8,1.7-17.6l8.7,1.7c0,1.7-0.8,5.6-1,7.7
	C24,105.1,24.1,108.1,23.8,110.6z M189.8,78.5l8.2-3.3c1.2,1.6,4.8,14.2,5.2,16.9l-8.9,1.7C193.3,87.3,190,79.8,189.8,78.5
	L189.8,78.5z M25.6,93.7l-8.8-1.7c1.1-5.8,2.8-11.5,5.1-16.9l8.2,3.4C29.7,80.8,26.7,87,25.6,93.7z M181.9,63.5
	c1.3-0.7,2.5-1.4,3.6-2.3c1.1-0.7,2.6-1.8,3.7-2.4c0.9,1.1,1.7,2.3,2.4,3.6c1.7,2.9,5.2,9,6,11.9l-8.1,3.5l-3.5-7.2
	C185.1,68.9,182,64,181.9,63.5z M30.7,77.6l-8.3-3.4c1.1-3.4,6.5-13.4,8.3-15.5l7.4,4.9c-0.5,1.1-1.4,2.2-2.1,3.3
	C34.5,69.5,31.3,75.2,30.7,77.6z M177.6,44.2c0.5,0.5,1,1,1.5,1.6c2.4,2.6,8.5,9.5,9.6,12c-2.4,1.8-4.9,3.4-7.5,4.9
	c-1.4-2.2-3-4.3-4.7-6.3c-1.7-2.2-3.6-4-5.3-5.9L177.6,44.2z M38.6,62.7c-1.1-0.5-5.8-3.9-7.4-4.8c1-2.2,7.2-9.6,9.6-12.2
	c0.5-0.6,1.1-1,1.6-1.5c2.2,2,4.3,4.1,6.3,6.4c-0.4,0.5-0.9,0.8-1.3,1.3s-0.8,1-1.3,1.5l-2.6,2.9c-0.9,1-1.6,2-2.4,3.1L38.6,62.7z
	 M49.4,49.7c-1.1-0.5-2.1-2-3.2-3s-2.2-2.3-3.2-3.1c0.4-0.6,0.9-1.2,1.5-1.7c1.9-1.9,9.7-8.4,12.1-9.6c1.8,2.4,3.5,4.8,4.9,7.4
	L49.4,49.7L49.4,49.7z M163.2,32.4c2,0.8,6.9,5.1,8.8,6.6l4.8,4.5l-6.3,6.4c-2-1.7-3.3-3.3-5.8-5.2c-2-1.7-4.2-3.3-6.4-4.8
	L163.2,32.4z M143.5,31.6l3.3-8.2c2.8,1,5.5,2.3,8.1,3.8c1.3,0.7,2.5,1.4,3.7,2.2c0.6,0.4,1.3,0.8,1.9,1.1l1.4,0.9l0.1,0.1l0.3,0.3
	c-1,1.8-4.3,6.2-4.7,7.3c-0.8-0.3-5-3-6.9-3.9C150.7,35.2,143.5,31.6,143.5,31.6z M62.5,39.1c-1.8-2.4-3.5-4.9-5-7.5l7.5-4.4
	c2.6-1.5,5.2-2.7,8-3.8c0.6,0.6,3.3,7.6,3.5,8.4c-2.5,0.9-4.9,2-7.2,3.3L62.5,39.1L62.5,39.1z M74.1,23.1c1.6-1.2,14.1-4.9,16.8-5.1
	l1.7,8.8c-5.4,0.7-10.4,3-15.1,4.5C76.2,28.6,75.1,25.9,74.1,23.1z M129,18c2.1-0.1,15.6,4.1,16.9,5.1l-3.3,8.2
	c-1.9-0.4-8.4-3.4-15.3-4.5L129,18z M92,17.8c2.3-1.1,14.2-1.8,17.5-1.8v9c-2.8,0-5.6,0.2-8.3,0.5c-1.4,0.1-6.8,1.1-7.5,1L92,17.8z
	 M110.5,16c3.4-0.4,14.2,0.8,17.6,1.7l-1.7,8.7c-1.8,0-5.4-0.8-7.6-1c-2.7-0.3-5.7-0.2-8.3-0.5V16z M77.9,202.8
	c1.6,0.3,3.6,1.1,5.2,1.6s3.5,1,5.3,1.4c1.3,0.3,11.3,1.9,11.5,2c1.9,0,3.7,0,5.6,0.3c12.3,0.6,24.6-1.2,36.2-5.2
	c11.6-3.8,21.1-9.8,30.3-17c8.6-6.8,16.1-16.2,21.7-25.6c3-5.1,5.6-10.4,7.6-16c3.1-8.8,3-10.2,4.8-18.8c0.8-8,1.4-14.5,0.7-22.8
	c-0.3-3.5-0.8-6.9-1.4-10.3c-0.6-3.4-1.7-6.5-2.4-9.7c-0.5-1.2-1.1-3.2-1.6-4.6s-1.4-3.4-1.8-4.8L194.3,63c-2.8-4.9-6-9.5-9.5-13.8
	c-0.6-0.7-1.2-1.3-1.8-2l-9.8-9.8c-1.8-1.7-6.9-5.3-8.8-6.7c-9.9-6.7-21-11.5-32.7-14.2c-18.8-4.4-36.6-2.8-54.6,3.3
	c-9.2,3.1-22.2,10.5-29.6,17.1c-6.2,5.6-10.3,9.4-15.2,16.2c-7,9.4-12.3,20-15.5,31.2c-5.1,17-4.9,37.9,0.3,54.8
	c3.9,13,10.5,25,19.3,35.2l3.8,4.1c2.5,2.7,5.2,5.2,8,7.5C63.2,198.5,75.7,201.4,77.9,202.8z"/>
<path class="st2" d="M105,53.5c12.2-1.1,24.4,1.8,34.9,8.1c2.9,1.8,5.7,3.8,8.3,6.1c10.8,9,18.2,24.1,19.4,38.4
	c2.8,31.8-20.8,59.9-52.6,62.7c-33.5,2.9-60.1-22.5-62.7-52.6c-0.7-8.6,0.4-17.2,3.4-25.3c1.3-3.4,2.8-6.6,4.7-9.7
	c2.7-4.4,5.9-8.4,9.6-12C80,60.2,90.9,54.7,105,53.5L105,53.5z M50.2,114.4c1.9,33,30.1,58.2,63.1,56.4s58.2-30.1,56.4-63.1
	c-1.9-33-30.1-58.2-63.1-56.4C74.9,53,48.2,80.4,50.2,114.4L50.2,114.4z"/>
<path class="st2" d="M66.6,85.4c0.2-1,2.5-4.1,3.2-4.9c2.3-3,4.9-5.8,7.8-8.2c15.6-12.7,36.7-15.5,55-6.4c5.2,2.6,9.9,6.1,13.9,10.3
	c0.7,0.8,3.4,3.5,3.6,4.4c0.9,0.4,3.9,5.2,4.3,6.5c1.3,1.1,4.1,9.4,4.7,11.9c3.4,13.6,0.9,28-6.7,39.8
	c-14.6,22.2-44.7,30.5-69.1,15.3c-1.7-1.1-3.3-2.2-4.9-3.5c-1.5-1.2-2.9-2.5-4.3-3.8c-12.4-12.7-17.9-32-12.5-49.8
	C62.2,94.4,65.1,86.5,66.6,85.4L66.6,85.4z M107.2,58.7c-28,1.6-51.2,25.2-49.6,55.2c1.6,27.9,25.2,51.2,55.2,49.6
	c28.9-1.5,51.2-26.2,49.7-55.1c0-0.1,0-0.1,0-0.2C160.9,80.3,137,57,107.2,58.7z"/>
<path class="st2" d="M184.9,114.2c0.3,1.4,0.1,3.2-1.4,3.2s-1.5-1.8-1.4-3.3L184.9,114.2z M180.6,114c0.1,1.5-0.1,3.6-1.6,3.7
	c-1.9,0.1-1.6-2.2-1.5-3.8L180.6,114z M181.6,117.7c0.9,2.7,3.5,2.3,4.3,0.9c0.7-1.3,0.8-4.6,0.8-6.3l-10.6-0.7
	c-0.5,2.9-1,9,3.4,8.3C180.8,119.6,181,118.5,181.6,117.7z"/>
<path class="st2" d="M66.8,50.2c3.6-1.5,7.1,5.1,3.3,6.7c-2.5,1-5.4-2.2-4.9-4.9C65.3,51.1,65.9,50.4,66.8,50.2z M67,48.1
	C59.9,50,63.6,60.7,69.9,59c2.8-0.8,4.4-3.6,3.7-6.4c0-0.1-0.1-0.2-0.1-0.4C72.7,49.8,70.3,47.2,67,48.1z"/>
<path class="st2" d="M101.9,36.9c3.6-1.9,5.8,5.4,2.4,7C100.6,45.8,98.2,38.8,101.9,36.9z M102.2,34.9c-6.6,1.2-5.3,12.2,1.7,11
	C110.5,44.8,109.3,33.6,102.2,34.9L102.2,34.9z"/>
<path class="st2" d="M38.1,114.2c4.9-1,6.2,4.7,1.7,5.7C34.8,121,33,115.3,38.1,114.2z M37,112.2c-6.8,2-3.6,12,3.8,9.8
	c2.7-0.7,4.2-3.5,3.5-6.2c0-0.2-0.1-0.3-0.2-0.5C43,112.5,39.9,111.1,37,112.2z"/>
<path class="st2" d="M175.6,76.6c-1.3,4-8.3,3.9-6.9-0.6C170,72,177,72.2,175.6,76.6z M171,71.3c-7.7,2.1-4.6,11.9,2.1,10.2
	C180.5,79.7,178.1,69.4,171,71.3z"/>
<path class="st2" d="M172.8,132.1l7.6,2.6c-3.4,0.4-6.1,1.2-9.4,1.8l-0.7,1.9c3.3,0.8,6.9,2.6,9.9,3.7l0.7-1.8l-7.3-2.6
	c1.5-0.2,2.9-0.4,4.4-0.7c1.4-0.4,2.9-0.7,4.4-0.8c0.4-0.7,0.7-1.4,0.8-2.2c-0.4-0.2-9.4-3.7-9.9-3.8L172.8,132.1L172.8,132.1z"/>
<path class="st2" d="M181.4,88.2c0.8,2.8,0.4,4.7-2.2,5.4c-2.9,0.9-4.5-0.7-4.8-3.3L181.4,88.2z M172.2,88.7c0.4,1.9,0.9,4.2,2,5.5
	c2.6,3.1,8.7,2,9.5-2c0.3-1.6-0.6-5.1-1.3-6.4c-1.7,0.4-3.4,0.9-5,1.4C175.7,87.7,173.8,88.1,172.2,88.7L172.2,88.7z"/>
<path class="st2" d="M143.7,173.6l0.7,4.6c-0.6-0.5-1.2-1-1.7-1.6c-0.5-0.5-1.1-1.1-1.5-1.7L143.7,173.6z M143.2,172
	c-1.1,0.7-2.2,1.2-3.4,1.7c-0.6-0.8-1.3-1.6-2-2.2l-2.2,1.2c0.6,0.7,1.2,1.3,1.9,1.9l6.2,5.8l2.6-1.4c-0.2-1.5-1.3-10.6-1.7-11.2
	l-2,1.2L143.2,172L143.2,172z"/>
<path class="st2" d="M37,88c2.5,1.4,8.8,1.1,8.3,4.5c-0.6,3.9-7.1,0.3-9.5,0L35,94.7c4.4,0.7,10.1,4.4,11.8-1.3
	c0.8-2.9-0.7-4.5-2.7-5.3c-2.2-0.8-4.4-1.5-6.7-2L37,88z"/>
<path class="st2" d="M37.2,135.8c0.1,0.7,0.4,1.4,0.8,2.1c2.4-0.7,8.2-4.5,9.4-1.1s-5.6,4.3-7.8,5.4c0.2,0.7,0.5,1.4,0.9,2.1
	c2.1-0.7,4.1-1.5,6.1-2.4c2-1,3.5-2.5,2.5-5.4C47.1,130.6,41.4,134.8,37.2,135.8L37.2,135.8z"/>
<path class="st2" d="M174.1,128.3l1.8,0.4c0.2-1.7,0.4-4,0.8-4.7l2.8,0.4c0.2,1.1-0.4,2.5-0.5,3.7l1.6,0.2c0.1-1.2,0.3-2.4,0.7-3.5
	l2.5,0.3l-0.8,4.4l1.8,0.3l1.1-6.6l-10.4-1.8L174.1,128.3L174.1,128.3z"/>
<path class="st2" d="M175,99.1l0.9,6.8l1.6-0.1c0.2-1.1-0.5-3.3-0.6-4.7c0.9-0.4,2-0.6,3-0.5l0.4,3.4l1.7-0.1l-0.6-3.7l2.6-0.4
	c0.5,5.4,0.2,4.4,2.2,4.2l-0.9-6.6L175,99.1z"/>
<path class="st2" d="M89.5,39.2c1.4-0.4,3.4-1.1,3.8,0.7s-1.3,2.6-2.8,2.6L89.5,39.2L89.5,39.2z M87.1,38.3l2.7,10.2l2.2-0.5
	l-1.1-3.8c0.5-0.4,6-1.6,4.2-5.7c-0.6-1.3-1.9-1.7-3.8-1.4C89.9,37.4,88.5,37.8,87.1,38.3z"/>
<path class="st2" d="M42.3,105.9l1.6,0.7c1-1.5,2.1-7.2-1.5-7.8c-4.2-0.7-4,5.2-6.5,4.2c-0.9-1.2,0-3,0.3-4.2l-1.8-0.6
	c-0.5,1.7-1.1,4-0.3,5.6c0.8,1.4,2.6,1.8,4,1c0.2-0.1,0.4-0.3,0.6-0.5c0.9-0.8,2-3.6,3.3-3.5C44.1,101.2,42.6,105,42.3,105.9z"/>
<path class="st2" d="M164.2,73.4c0.6-0.2,1.1-0.6,1.5-1.1c-2-1.1-3.7-4-1.3-6.3c3.7-3.5,5.9,1.3,6.2,1.6l1.5-0.8
	c-0.6-2.8-5.4-5.8-9.1-2.6c-1.5,1.2-2.3,3.2-1.8,5.1C161.7,70.9,162.7,72.4,164.2,73.4z"/>
<polygon class="st2" points="124.2,37.9 127.3,38.4 125.3,47.2 127.4,47.7 129.4,39 132.4,39.7 132.8,38.1 124.7,36.1 "/>
<path class="st2" d="M34.6,125l1.8,8.2l1.7-0.3l-0.8-3.1c2.9-0.8,5.8-1.5,8.7-1.9l-0.4-2.2l-8.8,2l-0.6-2.9L34.6,125L34.6,125z"/>
<path class="st2" d="M110.7,36.9l-0.2,8.5l6.6,0.2c0.2-0.5,0.3-1.1,0.3-1.7h-4.7l0.3-9h-2.3L110.7,36.9L110.7,36.9z"/>
<path class="st2" d="M57,56.2c1.1,0.7,4.4,4.6,5.4,5.6c0.6,0.7,1.2,1.3,1.8,1.9c0.6-0.4,1.1-0.9,1.6-1.5l-7.1-7.7
	C58,54.8,57.4,55.4,57,56.2z"/>
<path class="st2" d="M118.6,46l2.2,0.3l1.2-10.6c-0.7-0.2-1.5-0.3-2.3-0.2L118.6,46z"/>
<path class="st2" d="M79.1,181.7c0.9-3,3.1-6.6,4.4-9.5l-0.1-0.1l-0.1-0.1l-1.7-0.9c-0.2,0.2-4.3,9.1-4.5,9.7L79.1,181.7z"/>
</svg>
